<svg viewBox="0 0 500 500" xmlns="http://www.w3.org/2000/svg" style="--trunk-color:#8a5a3d">
  <style>
    text { font-family: -apple-system, Segoe UI, sans-serif; }
    @keyframes sway {
      0%, 100% { transform: rotate(-1.2deg); }
      50% { transform: rotate(1.2deg); }
    }
    @keyframes swayStrong {
      0%, 100% { transform: rotate(-3deg) scale(1); }
      50% { transform: rotate(3deg) scale(1.05); }
    }
    .leaf-sway { animation: sway 4s ease-in-out infinite; transform-origin: center; }
    .leaf-sway-strong { animation: swayStrong 2.6s ease-in-out infinite; transform-origin: center; }
  </style>
  <ellipse cx="250" cy="482" rx="70" ry="10" fill="#8a5a3d" opacity="0.15" />
  <g>
    <line x1="250.0" y1="480.0" x2="250.0" y2="390.0" stroke="var(--trunk-color)" stroke-width="12.8" stroke-linecap="round" />
    <line x1="250.0" y1="390.0" x2="216.0" y2="325.7" stroke="var(--trunk-color)" stroke-width="11.2" stroke-linecap="round" />
    <line x1="216.0" y1="325.7" x2="172.4" y2="291.9" stroke="var(--trunk-color)" stroke-width="9.6" stroke-linecap="round" />
    <line x1="172.4" y1="291.9" x2="129.0" y2="281.3" stroke="var(--trunk-color)" stroke-width="8.0" stroke-linecap="round" />
    <line x1="129.0" y1="281.3" x2="94.5" y2="289.3" stroke="var(--trunk-color)" stroke-width="6.4" stroke-linecap="round" />
    <line x1="94.5" y1="289.3" x2="71.5" y2="304.8" stroke="var(--trunk-color)" stroke-width="4.8" stroke-linecap="round" />
    <line x1="71.5" y1="304.8" x2="57.4" y2="322.1" stroke="var(--trunk-color)" stroke-width="3.2" stroke-linecap="round" />
    <line x1="57.4" y1="322.1" x2="52.3" y2="337.3" stroke="var(--trunk-color)" stroke-width="1.6" stroke-linecap="round" />
    <line x1="71.5" y1="304.8" x2="50.5" y2="312.3" stroke="var(--trunk-color)" stroke-width="3.2" stroke-linecap="round" />
    <line x1="50.5" y1="312.3" x2="39.6" y2="324.9" stroke="var(--trunk-color)" stroke-width="1.6" stroke-linecap="round" />
    <line x1="50.5" y1="312.3" x2="34.6" y2="311.2" stroke="var(--trunk-color)" stroke-width="1.6" stroke-linecap="round" />
    <line x1="129.0" y1="281.3" x2="101.6" y2="264.1" stroke="var(--trunk-color)" stroke-width="6.4" stroke-linecap="round" />
    <line x1="101.6" y1="264.1" x2="76.2" y2="264.5" stroke="var(--trunk-color)" stroke-width="4.8" stroke-linecap="round" />
    <line x1="76.2" y1="264.5" x2="59.0" y2="272.4" stroke="var(--trunk-color)" stroke-width="3.2" stroke-linecap="round" />
    <line x1="59.0" y1="272.4" x2="49.1" y2="280.6" stroke="var(--trunk-color)" stroke-width="1.6" stroke-linecap="round" />
    <line x1="59.0" y1="272.4" x2="45.7" y2="272.2" stroke="var(--trunk-color)" stroke-width="1.6" stroke-linecap="round" />
    <line x1="76.2" y1="264.5" x2="58.5" y2="256.4" stroke="var(--trunk-color)" stroke-width="3.2" stroke-linecap="round" />
    <line x1="58.5" y1="256.4" x2="43.9" y2="257.1" stroke="var(--trunk-color)" stroke-width="1.6" stroke-linecap="round" />
    <line x1="172.4" y1="291.9" x2="151.7" y2="257.5" stroke="var(--trunk-color)" stroke-width="8.0" stroke-linecap="round" />
    <line x1="151.7" y1="257.5" x2="126.3" y2="241.3" stroke="var(--trunk-color)" stroke-width="6.4" stroke-linecap="round" />
    <line x1="126.3" y1="241.3" x2="105.2" y2="238.5" stroke="var(--trunk-color)" stroke-width="4.8" stroke-linecap="round" />
    <line x1="105.2" y1="238.5" x2="90.2" y2="243.4" stroke="var(--trunk-color)" stroke-width="3.2" stroke-linecap="round" />
    <line x1="90.2" y1="243.4" x2="82.2" y2="251.3" stroke="var(--trunk-color)" stroke-width="1.6" stroke-linecap="round" />
    <line x1="105.2" y1="238.5" x2="89.9" y2="231.4" stroke="var(--trunk-color)" stroke-width="3.2" stroke-linecap="round" />
    <line x1="89.9" y1="231.4" x2="78.5" y2="235.0" stroke="var(--trunk-color)" stroke-width="1.6" stroke-linecap="round" />
    <line x1="89.9" y1="231.4" x2="81.8" y2="223.2" stroke="var(--trunk-color)" stroke-width="1.6" stroke-linecap="round" />
    <line x1="126.3" y1="241.3" x2="111.2" y2="223.9" stroke="var(--trunk-color)" stroke-width="4.8" stroke-linecap="round" />
    <line x1="111.2" y1="223.9" x2="95.7" y2="216.7" stroke="var(--trunk-color)" stroke-width="3.2" stroke-linecap="round" />
    <line x1="95.7" y1="216.7" x2="81.8" y2="216.0" stroke="var(--trunk-color)" stroke-width="1.6" stroke-linecap="round" />
    <line x1="95.7" y1="216.7" x2="87.6" y2="207.2" stroke="var(--trunk-color)" stroke-width="1.6" stroke-linecap="round" />
    <line x1="151.7" y1="257.5" x2="147.5" y2="228.7" stroke="var(--trunk-color)" stroke-width="6.4" stroke-linecap="round" />
    <line x1="147.5" y1="228.7" x2="138.0" y2="208.4" stroke="var(--trunk-color)" stroke-width="4.8" stroke-linecap="round" />
    <line x1="138.0" y1="208.4" x2="124.5" y2="197.1" stroke="var(--trunk-color)" stroke-width="3.2" stroke-linecap="round" />
    <line x1="124.5" y1="197.1" x2="112.3" y2="195.3" stroke="var(--trunk-color)" stroke-width="1.6" stroke-linecap="round" />
    <line x1="124.5" y1="197.1" x2="119.5" y2="185.1" stroke="var(--trunk-color)" stroke-width="1.6" stroke-linecap="round" />
    <line x1="216.0" y1="325.7" x2="203.6" y2="272.2" stroke="var(--trunk-color)" stroke-width="9.6" stroke-linecap="round" />
    <line x1="203.6" y1="272.2" x2="169.8" y2="241.7" stroke="var(--trunk-color)" stroke-width="8.0" stroke-linecap="round" />
    <line x1="169.8" y1="241.7" x2="133.2" y2="237.2" stroke="var(--trunk-color)" stroke-width="6.4" stroke-linecap="round" />
    <line x1="133.2" y1="237.2" x2="104.5" y2="245.6" stroke="var(--trunk-color)" stroke-width="4.8" stroke-linecap="round" />
    <line x1="104.5" y1="245.6" x2="88.5" y2="262.3" stroke="var(--trunk-color)" stroke-width="3.2" stroke-linecap="round" />
    <line x1="88.5" y1="262.3" x2="83.5" y2="278.5" stroke="var(--trunk-color)" stroke-width="1.6" stroke-linecap="round" />
    <line x1="104.5" y1="245.6" x2="84.7" y2="235.3" stroke="var(--trunk-color)" stroke-width="3.2" stroke-linecap="round" />
    <line x1="84.7" y1="235.3" x2="69.2" y2="232.5" stroke="var(--trunk-color)" stroke-width="1.6" stroke-linecap="round" />
    <line x1="84.7" y1="235.3" x2="76.7" y2="219.3" stroke="var(--trunk-color)" stroke-width="1.6" stroke-linecap="round" />
    <line x1="133.2" y1="237.2" x2="110.1" y2="222.6" stroke="var(--trunk-color)" stroke-width="4.8" stroke-linecap="round" />
    <line x1="110.1" y1="222.6" x2="90.1" y2="217.5" stroke="var(--trunk-color)" stroke-width="3.2" stroke-linecap="round" />
    <line x1="90.1" y1="217.5" x2="74.5" y2="221.4" stroke="var(--trunk-color)" stroke-width="1.6" stroke-linecap="round" />
    <line x1="169.8" y1="241.7" x2="157.7" y2="212.4" stroke="var(--trunk-color)" stroke-width="6.4" stroke-linecap="round" />
    <line x1="157.7" y1="212.4" x2="143.4" y2="194.9" stroke="var(--trunk-color)" stroke-width="4.8" stroke-linecap="round" />
    <line x1="143.4" y1="194.9" x2="127.1" y2="185.7" stroke="var(--trunk-color)" stroke-width="3.2" stroke-linecap="round" />
    <line x1="127.1" y1="185.7" x2="113.0" y2="187.2" stroke="var(--trunk-color)" stroke-width="1.6" stroke-linecap="round" />
    <line x1="127.1" y1="185.7" x2="120.5" y2="173.1" stroke="var(--trunk-color)" stroke-width="1.6" stroke-linecap="round" />
    <line x1="143.4" y1="194.9" x2="139.3" y2="176.7" stroke="var(--trunk-color)" stroke-width="3.2" stroke-linecap="round" />
    <line x1="139.3" y1="176.7" x2="128.4" y2="166.1" stroke="var(--trunk-color)" stroke-width="1.6" stroke-linecap="round" />
    <line x1="157.7" y1="212.4" x2="161.4" y2="188.6" stroke="var(--trunk-color)" stroke-width="4.8" stroke-linecap="round" />
    <line x1="161.4" y1="188.6" x2="151.9" y2="173.9" stroke="var(--trunk-color)" stroke-width="3.2" stroke-linecap="round" />
    <line x1="151.9" y1="173.9" x2="139.8" y2="169.4" stroke="var(--trunk-color)" stroke-width="1.6" stroke-linecap="round" />
    <line x1="151.9" y1="173.9" x2="152.5" y2="160.2" stroke="var(--trunk-color)" stroke-width="1.6" stroke-linecap="round" />
    <line x1="161.4" y1="188.6" x2="171.9" y2="172.5" stroke="var(--trunk-color)" stroke-width="3.2" stroke-linecap="round" />
    <line x1="171.9" y1="172.5" x2="174.0" y2="157.2" stroke="var(--trunk-color)" stroke-width="1.6" stroke-linecap="round" />
    <line x1="171.9" y1="172.5" x2="184.4" y2="164.5" stroke="var(--trunk-color)" stroke-width="1.6" stroke-linecap="round" />
    <line x1="203.6" y1="272.2" x2="222.9" y2="233.8" stroke="var(--trunk-color)" stroke-width="8.0" stroke-linecap="round" />
    <line x1="222.9" y1="233.8" x2="229.6" y2="200.7" stroke="var(--trunk-color)" stroke-width="6.4" stroke-linecap="round" />
    <line x1="229.6" y1="200.7" x2="218.0" y2="175.7" stroke="var(--trunk-color)" stroke-width="4.8" stroke-linecap="round" />
    <line x1="218.0" y1="175.7" x2="203.5" y2="160.0" stroke="var(--trunk-color)" stroke-width="3.2" stroke-linecap="round" />
    <line x1="203.5" y1="160.0" x2="189.5" y2="153.8" stroke="var(--trunk-color)" stroke-width="1.6" stroke-linecap="round" />
    <line x1="218.0" y1="175.7" x2="218.8" y2="156.7" stroke="var(--trunk-color)" stroke-width="3.2" stroke-linecap="round" />
    <line x1="218.8" y1="156.7" x2="214.6" y2="143.8" stroke="var(--trunk-color)" stroke-width="1.6" stroke-linecap="round" />
    <line x1="250.0" y1="390.0" x2="282.2" y2="334.7" stroke="var(--trunk-color)" stroke-width="11.2" stroke-linecap="round" />
    <line x1="282.2" y1="334.7" x2="280.5" y2="289.9" stroke="var(--trunk-color)" stroke-width="9.6" stroke-linecap="round" />
    <line x1="280.5" y1="289.9" x2="267.0" y2="259.4" stroke="var(--trunk-color)" stroke-width="8.0" stroke-linecap="round" />
    <line x1="267.0" y1="259.4" x2="244.1" y2="244.2" stroke="var(--trunk-color)" stroke-width="6.4" stroke-linecap="round" />
    <line x1="244.1" y1="244.2" x2="223.3" y2="239.2" stroke="var(--trunk-color)" stroke-width="4.8" stroke-linecap="round" />
    <line x1="223.3" y1="239.2" x2="208.7" y2="242.8" stroke="var(--trunk-color)" stroke-width="3.2" stroke-linecap="round" />
    <line x1="208.7" y1="242.8" x2="200.9" y2="250.2" stroke="var(--trunk-color)" stroke-width="1.6" stroke-linecap="round" />
    <line x1="208.7" y1="242.8" x2="196.9" y2="242.4" stroke="var(--trunk-color)" stroke-width="1.6" stroke-linecap="round" />
    <line x1="267.0" y1="259.4" x2="267.4" y2="236.3" stroke="var(--trunk-color)" stroke-width="6.4" stroke-linecap="round" />
    <line x1="267.4" y1="236.3" x2="259.0" y2="221.1" stroke="var(--trunk-color)" stroke-width="4.8" stroke-linecap="round" />
    <line x1="259.0" y1="221.1" x2="247.5" y2="213.9" stroke="var(--trunk-color)" stroke-width="3.2" stroke-linecap="round" />
    <line x1="247.5" y1="213.9" x2="237.7" y2="215.8" stroke="var(--trunk-color)" stroke-width="1.6" stroke-linecap="round" />
    <line x1="259.0" y1="221.1" x2="257.5" y2="208.1" stroke="var(--trunk-color)" stroke-width="3.2" stroke-linecap="round" />
    <line x1="257.5" y1="208.1" x2="251.5" y2="200.4" stroke="var(--trunk-color)" stroke-width="1.6" stroke-linecap="round" />
    <line x1="280.5" y1="289.9" x2="292.9" y2="256.6" stroke="var(--trunk-color)" stroke-width="8.0" stroke-linecap="round" />
    <line x1="292.9" y1="256.6" x2="291.1" y2="229.3" stroke="var(--trunk-color)" stroke-width="6.4" stroke-linecap="round" />
    <line x1="291.1" y1="229.3" x2="280.7" y2="211.6" stroke="var(--trunk-color)" stroke-width="4.8" stroke-linecap="round" />
    <line x1="280.7" y1="211.6" x2="268.2" y2="201.3" stroke="var(--trunk-color)" stroke-width="3.2" stroke-linecap="round" />
    <line x1="268.2" y1="201.3" x2="256.7" y2="198.4" stroke="var(--trunk-color)" stroke-width="1.6" stroke-linecap="round" />
    <line x1="280.7" y1="211.6" x2="280.0" y2="196.3" stroke="var(--trunk-color)" stroke-width="3.2" stroke-linecap="round" />
    <line x1="280.0" y1="196.3" x2="274.5" y2="185.5" stroke="var(--trunk-color)" stroke-width="1.6" stroke-linecap="round" />
    <line x1="280.0" y1="196.3" x2="285.0" y2="185.3" stroke="var(--trunk-color)" stroke-width="1.6" stroke-linecap="round" />
    <line x1="291.1" y1="229.3" x2="304.5" y2="212.0" stroke="var(--trunk-color)" stroke-width="4.8" stroke-linecap="round" />
    <line x1="304.5" y1="212.0" x2="308.1" y2="197.4" stroke="var(--trunk-color)" stroke-width="3.2" stroke-linecap="round" />
    <line x1="308.1" y1="197.4" x2="303.2" y2="186.5" stroke="var(--trunk-color)" stroke-width="1.6" stroke-linecap="round" />
    <line x1="308.1" y1="197.4" x2="314.7" y2="189.2" stroke="var(--trunk-color)" stroke-width="1.6" stroke-linecap="round" />
    <line x1="292.9" y1="256.6" x2="315.3" y2="242.6" stroke="var(--trunk-color)" stroke-width="6.4" stroke-linecap="round" />
    <line x1="315.3" y1="242.6" x2="327.3" y2="225.8" stroke="var(--trunk-color)" stroke-width="4.8" stroke-linecap="round" />
    <line x1="327.3" y1="225.8" x2="330.9" y2="209.3" stroke="var(--trunk-color)" stroke-width="3.2" stroke-linecap="round" />
    <line x1="330.9" y1="209.3" x2="327.1" y2="196.9" stroke="var(--trunk-color)" stroke-width="1.6" stroke-linecap="round" />
    <line x1="330.9" y1="209.3" x2="337.4" y2="199.7" stroke="var(--trunk-color)" stroke-width="1.6" stroke-linecap="round" />
    <line x1="327.3" y1="225.8" x2="340.1" y2="218.8" stroke="var(--trunk-color)" stroke-width="3.2" stroke-linecap="round" />
    <line x1="340.1" y1="218.8" x2="345.6" y2="209.2" stroke="var(--trunk-color)" stroke-width="1.6" stroke-linecap="round" />
    <line x1="340.1" y1="218.8" x2="350.8" y2="215.8" stroke="var(--trunk-color)" stroke-width="1.6" stroke-linecap="round" />
    <line x1="315.3" y1="242.6" x2="334.6" y2="241.9" stroke="var(--trunk-color)" stroke-width="4.8" stroke-linecap="round" />
    <line x1="334.6" y1="241.9" x2="345.2" y2="233.9" stroke="var(--trunk-color)" stroke-width="3.2" stroke-linecap="round" />
    <line x1="345.2" y1="233.9" x2="348.6" y2="224.3" stroke="var(--trunk-color)" stroke-width="1.6" stroke-linecap="round" />
    <line x1="345.2" y1="233.9" x2="356.0" y2="232.2" stroke="var(--trunk-color)" stroke-width="1.6" stroke-linecap="round" />
    <line x1="282.2" y1="334.7" x2="326.5" y2="307.0" stroke="var(--trunk-color)" stroke-width="9.6" stroke-linecap="round" />
    <line x1="326.5" y1="307.0" x2="341.9" y2="273.0" stroke="var(--trunk-color)" stroke-width="8.0" stroke-linecap="round" />
    <line x1="341.9" y1="273.0" x2="339.2" y2="244.9" stroke="var(--trunk-color)" stroke-width="6.4" stroke-linecap="round" />
    <line x1="339.2" y1="244.9" x2="330.1" y2="225.2" stroke="var(--trunk-color)" stroke-width="4.8" stroke-linecap="round" />
    <line x1="330.1" y1="225.2" x2="317.8" y2="215.7" stroke="var(--trunk-color)" stroke-width="3.2" stroke-linecap="round" />
    <line x1="317.8" y1="215.7" x2="306.7" y2="212.8" stroke="var(--trunk-color)" stroke-width="1.6" stroke-linecap="round" />
    <line x1="317.8" y1="215.7" x2="312.3" y2="205.7" stroke="var(--trunk-color)" stroke-width="1.6" stroke-linecap="round" />
    <line x1="330.1" y1="225.2" x2="332.9" y2="209.2" stroke="var(--trunk-color)" stroke-width="3.2" stroke-linecap="round" />
    <line x1="332.9" y1="209.2" x2="329.2" y2="197.1" stroke="var(--trunk-color)" stroke-width="1.6" stroke-linecap="round" />
    <line x1="332.9" y1="209.2" x2="338.0" y2="197.6" stroke="var(--trunk-color)" stroke-width="1.6" stroke-linecap="round" />
    <line x1="339.2" y1="244.9" x2="344.9" y2="225.7" stroke="var(--trunk-color)" stroke-width="4.8" stroke-linecap="round" />
    <line x1="344.9" y1="225.7" x2="342.4" y2="211.2" stroke="var(--trunk-color)" stroke-width="3.2" stroke-linecap="round" />
    <line x1="342.4" y1="211.2" x2="335.8" y2="203.4" stroke="var(--trunk-color)" stroke-width="1.6" stroke-linecap="round" />
    <line x1="342.4" y1="211.2" x2="346.8" y2="201.8" stroke="var(--trunk-color)" stroke-width="1.6" stroke-linecap="round" />
    <line x1="326.5" y1="307.0" x2="363.2" y2="309.6" stroke="var(--trunk-color)" stroke-width="8.0" stroke-linecap="round" />
    <line x1="363.2" y1="309.6" x2="389.3" y2="299.3" stroke="var(--trunk-color)" stroke-width="6.4" stroke-linecap="round" />
    <line x1="389.3" y1="299.3" x2="400.4" y2="281.2" stroke="var(--trunk-color)" stroke-width="4.8" stroke-linecap="round" />
    <line x1="400.4" y1="281.2" x2="399.8" y2="263.9" stroke="var(--trunk-color)" stroke-width="3.2" stroke-linecap="round" />
    <line x1="399.8" y1="263.9" x2="393.7" y2="252.7" stroke="var(--trunk-color)" stroke-width="1.6" stroke-linecap="round" />
    <line x1="400.4" y1="281.2" x2="415.0" y2="276.8" stroke="var(--trunk-color)" stroke-width="3.2" stroke-linecap="round" />
    <line x1="415.0" y1="276.8" x2="423.7" y2="268.5" stroke="var(--trunk-color)" stroke-width="1.6" stroke-linecap="round" />
    <line x1="415.0" y1="276.8" x2="426.1" y2="276.3" stroke="var(--trunk-color)" stroke-width="1.6" stroke-linecap="round" />
    <line x1="389.3" y1="299.3" x2="409.5" y2="301.3" stroke="var(--trunk-color)" stroke-width="4.8" stroke-linecap="round" />
    <line x1="409.5" y1="301.3" x2="425.5" y2="298.1" stroke="var(--trunk-color)" stroke-width="3.2" stroke-linecap="round" />
    <line x1="425.5" y1="298.1" x2="434.6" y2="291.5" stroke="var(--trunk-color)" stroke-width="1.6" stroke-linecap="round" />
    <line x1="425.5" y1="298.1" x2="437.3" y2="301.4" stroke="var(--trunk-color)" stroke-width="1.6" stroke-linecap="round" />
    <line x1="409.5" y1="301.3" x2="423.7" y2="308.8" stroke="var(--trunk-color)" stroke-width="3.2" stroke-linecap="round" />
    <line x1="423.7" y1="308.8" x2="436.1" y2="311.4" stroke="var(--trunk-color)" stroke-width="1.6" stroke-linecap="round" />
  </g>
  <g>
    <circle class="leaf-sway" cx="72.7" cy="304.6" r="5.8" fill="#006d32" style="animation-delay:3.40s" />
    <circle class="leaf-sway" cx="78.4" cy="262.2" r="4.5" fill="#0e4429" style="animation-delay:3.76s" />
    <circle class="leaf-sway" cx="107.9" cy="240.6" r="7.1" fill="#26a641" style="animation-delay:0.78s" />
    <circle class="leaf-sway" cx="111.1" cy="222.9" r="7.1" fill="#26a641" style="animation-delay:1.97s" />
    <circle class="leaf-sway" cx="139.0" cy="208.5" r="8.4" fill="#39d353" style="animation-delay:1.11s" />
    <circle class="leaf-sway" cx="105.6" cy="244.9" r="7.1" fill="#26a641" style="animation-delay:1.79s" />
    <circle class="leaf-sway" cx="107.9" cy="219.9" r="8.4" fill="#39d353" style="animation-delay:0.77s" />
    <circle class="leaf-sway" cx="143.0" cy="192.6" r="7.1" fill="#26a641" style="animation-delay:3.90s" />
    <circle class="leaf-sway" cx="160.4" cy="187.0" r="5.8" fill="#006d32" style="animation-delay:2.32s" />
    <circle class="leaf-sway" cx="215.3" cy="176.7" r="7.1" fill="#26a641" style="animation-delay:0.59s" />
    <circle class="leaf-sway" cx="221.0" cy="237.7" r="5.8" fill="#006d32" style="animation-delay:2.89s" />
    <circle class="leaf-sway" cx="259.9" cy="224.0" r="5.8" fill="#006d32" style="animation-delay:1.42s" />
    <circle class="leaf-sway" cx="279.8" cy="211.5" r="8.4" fill="#39d353" style="animation-delay:0.54s" />
    <circle class="leaf-sway" cx="306.5" cy="210.4" r="4.5" fill="#0e4429" style="animation-delay:0.41s" />
    <circle class="leaf-sway" cx="325.0" cy="224.5" r="8.4" fill="#39d353" style="animation-delay:1.18s" />
    <circle class="leaf-sway" cx="335.0" cy="243.2" r="8.4" fill="#39d353" style="animation-delay:0.90s" />
    <circle class="leaf-sway" cx="328.5" cy="224.2" r="7.1" fill="#26a641" style="animation-delay:1.08s" />
    <circle class="leaf-sway" cx="347.4" cy="224.9" r="7.1" fill="#26a641" style="animation-delay:0.73s" />
    <circle class="leaf-sway" cx="398.5" cy="279.4" r="7.1" fill="#26a641" style="animation-delay:3.02s" />
    <circle class="leaf-sway" cx="408.3" cy="304.2" r="8.4" fill="#39d353" style="animation-delay:0.72s" />
    <circle class="leaf-sway" cx="57.1" cy="324.1" r="7.1" fill="#26a641" style="animation-delay:2.73s" />
    <circle class="leaf-sway" cx="51.3" cy="311.9" r="7.1" fill="#26a641" style="animation-delay:3.60s" />
    <circle class="leaf-sway" cx="56.2" cy="273.2" r="5.8" fill="#006d32" style="animation-delay:2.44s" />
    <circle class="leaf-sway" cx="59.6" cy="259.3" r="4.5" fill="#0e4429" style="animation-delay:3.62s" />
    <circle class="leaf-sway" cx="92.6" cy="241.7" r="4.5" fill="#0e4429" style="animation-delay:3.92s" />
    <circle class="leaf-sway" cx="89.0" cy="230.1" r="7.1" fill="#26a641" style="animation-delay:0.92s" />
    <circle class="leaf-sway" cx="93.2" cy="219.5" r="7.1" fill="#26a641" style="animation-delay:1.91s" />
    <circle class="leaf-sway" cx="122.3" cy="198.2" r="5.8" fill="#006d32" style="animation-delay:1.80s" />
    <circle class="leaf-sway" cx="86.8" cy="264.3" r="7.1" fill="#26a641" style="animation-delay:2.43s" />
    <circle class="leaf-sway" cx="82.8" cy="237.2" r="4.5" fill="#0e4429" style="animation-delay:3.51s" />
    <circle class="leaf-sway" cx="90.0" cy="217.8" r="4.5" fill="#0e4429" style="animation-delay:1.73s" />
    <circle class="leaf-sway" cx="125.1" cy="183.7" r="5.8" fill="#006d32" style="animation-delay:1.82s" />
    <circle class="leaf-sway" cx="136.8" cy="177.3" r="8.4" fill="#39d353" style="animation-delay:2.24s" />
    <circle class="leaf-sway" cx="149.0" cy="175.0" r="4.5" fill="#0e4429" style="animation-delay:1.26s" />
    <circle class="leaf-sway" cx="169.6" cy="175.1" r="5.8" fill="#006d32" style="animation-delay:0.55s" />
    <circle class="leaf-sway" cx="201.9" cy="157.8" r="4.5" fill="#0e4429" style="animation-delay:1.07s" />
    <circle class="leaf-sway" cx="220.4" cy="153.9" r="7.1" fill="#26a641" style="animation-delay:2.59s" />
    <circle class="leaf-sway" cx="211.3" cy="245.5" r="7.1" fill="#26a641" style="animation-delay:2.27s" />
    <circle class="leaf-sway" cx="245.8" cy="214.6" r="5.8" fill="#006d32" style="animation-delay:0.95s" />
    <circle class="leaf-sway" cx="257.8" cy="205.2" r="8.4" fill="#39d353" style="animation-delay:0.98s" />
    <circle class="leaf-sway" cx="267.6" cy="202.8" r="8.4" fill="#39d353" style="animation-delay:3.84s" />
    <circle class="leaf-sway" cx="277.3" cy="197.0" r="5.8" fill="#006d32" style="animation-delay:0.58s" />
    <circle class="leaf-sway" cx="305.7" cy="198.3" r="5.8" fill="#006d32" style="animation-delay:0.41s" />
    <circle class="leaf-sway" cx="331.2" cy="206.4" r="4.5" fill="#0e4429" style="animation-delay:2.82s" />
    <circle class="leaf-sway" cx="339.9" cy="218.7" r="8.4" fill="#39d353" style="animation-delay:3.85s" />
    <circle class="leaf-sway" cx="348.1" cy="235.5" r="7.1" fill="#26a641" style="animation-delay:2.23s" />
    <circle class="leaf-sway" cx="316.0" cy="218.0" r="4.5" fill="#0e4429" style="animation-delay:3.21s" />
    <circle class="leaf-sway" cx="332.3" cy="210.3" r="4.5" fill="#0e4429" style="animation-delay:2.20s" />
    <circle class="leaf-sway" cx="341.3" cy="209.8" r="7.1" fill="#26a641" style="animation-delay:1.94s" />
    <circle class="leaf-sway" cx="402.7" cy="266.8" r="7.1" fill="#26a641" style="animation-delay:1.93s" />
    <circle class="leaf-sway" cx="415.2" cy="278.2" r="8.4" fill="#39d353" style="animation-delay:0.02s" />
    <circle class="leaf-sway" cx="423.1" cy="295.2" r="7.1" fill="#26a641" style="animation-delay:0.58s" />
    <circle class="leaf-sway" cx="426.0" cy="309.0" r="8.4" fill="#39d353" style="animation-delay:3.58s" />
    <circle class="leaf-sway" cx="51.6" cy="335.7" r="5.8" fill="#006d32" style="animation-delay:3.10s" />
    <circle class="leaf-sway" cx="36.6" cy="324.6" r="4.5" fill="#0e4429" style="animation-delay:1.16s" />
    <circle class="leaf-sway" cx="36.5" cy="311.1" r="4.5" fill="#0e4429" style="animation-delay:0.09s" />
    <circle class="leaf-sway" cx="49.9" cy="280.5" r="8.4" fill="#39d353" style="animation-delay:1.05s" />
    <circle class="leaf-sway" cx="43.5" cy="274.1" r="8.4" fill="#39d353" style="animation-delay:2.11s" />
    <circle class="leaf-sway" cx="45.1" cy="260.0" r="8.4" fill="#39d353" style="animation-delay:1.41s" />
    <circle class="leaf-sway" cx="84.2" cy="248.4" r="7.1" fill="#26a641" style="animation-delay:2.98s" />
    <circle class="leaf-sway" cx="75.9" cy="237.5" r="8.4" fill="#39d353" style="animation-delay:1.20s" />
    <circle class="leaf-sway" cx="79.7" cy="224.8" r="8.4" fill="#39d353" style="animation-delay:2.22s" />
    <circle class="leaf-sway" cx="80.7" cy="218.3" r="8.4" fill="#39d353" style="animation-delay:3.72s" />
    <circle class="leaf-sway" cx="88.1" cy="208.9" r="5.8" fill="#006d32" style="animation-delay:2.07s" />
    <circle class="leaf-sway" cx="113.1" cy="195.9" r="8.4" fill="#39d353" style="animation-delay:0.68s" />
    <circle class="leaf-sway" cx="119.3" cy="184.0" r="8.4" fill="#39d353" style="animation-delay:0.31s" />
    <circle class="leaf-sway" cx="84.6" cy="281.3" r="8.4" fill="#39d353" style="animation-delay:0.01s" />
    <circle class="leaf-sway" cx="67.6" cy="234.1" r="7.1" fill="#26a641" style="animation-delay:0.56s" />
    <circle class="leaf-sway" cx="79.3" cy="221.2" r="5.8" fill="#006d32" style="animation-delay:1.52s" />
    <circle class="leaf-sway" cx="73.0" cy="224.2" r="7.1" fill="#26a641" style="animation-delay:1.51s" />
    <circle class="leaf-sway" cx="115.9" cy="184.4" r="8.4" fill="#39d353" style="animation-delay:1.33s" />
    <circle class="leaf-sway" cx="118.7" cy="173.8" r="7.1" fill="#26a641" style="animation-delay:0.16s" />
    <circle class="leaf-sway" cx="130.7" cy="166.4" r="5.8" fill="#006d32" style="animation-delay:2.04s" />
    <circle class="leaf-sway" cx="138.8" cy="170.2" r="5.8" fill="#006d32" style="animation-delay:2.16s" />
    <circle class="leaf-sway" cx="154.7" cy="161.4" r="4.5" fill="#0e4429" style="animation-delay:2.54s" />
    <circle class="leaf-sway" cx="173.9" cy="156.6" r="4.5" fill="#0e4429" style="animation-delay:0.29s" />
    <circle class="leaf-sway" cx="184.3" cy="165.8" r="7.1" fill="#26a641" style="animation-delay:2.19s" />
    <circle class="leaf-sway" cx="192.3" cy="155.8" r="4.5" fill="#0e4429" style="animation-delay:2.19s" />
    <circle class="leaf-sway" cx="217.1" cy="145.1" r="5.8" fill="#006d32" style="animation-delay:3.38s" />
    <circle class="leaf-sway" cx="198.3" cy="248.7" r="5.8" fill="#006d32" style="animation-delay:2.62s" />
    <circle class="leaf-sway" cx="197.1" cy="243.5" r="4.5" fill="#0e4429" style="animation-delay:1.86s" />
    <circle class="leaf-sway" cx="239.9" cy="215.5" r="5.8" fill="#006d32" style="animation-delay:0.76s" />
    <circle class="leaf-sway" cx="251.2" cy="198.5" r="8.4" fill="#39d353" style="animation-delay:3.92s" />
    <circle class="leaf-sway" cx="253.9" cy="199.2" r="7.1" fill="#26a641" style="animation-delay:2.73s" />
    <circle class="leaf-sway" cx="275.6" cy="187.9" r="5.8" fill="#006d32" style="animation-delay:1.90s" />
    <circle class="leaf-sway" cx="283.7" cy="183.6" r="7.1" fill="#26a641" style="animation-delay:0.23s" />
    <circle class="leaf-sway" cx="303.4" cy="184.9" r="8.4" fill="#39d353" style="animation-delay:0.16s" />
    <circle class="leaf-sway" cx="316.9" cy="189.9" r="8.4" fill="#39d353" style="animation-delay:1.48s" />
    <circle class="leaf-sway" cx="326.9" cy="194.8" r="5.8" fill="#006d32" style="animation-delay:0.42s" />
    <circle class="leaf-sway" cx="338.2" cy="197.4" r="4.5" fill="#0e4429" style="animation-delay:0.61s" />
    <circle class="leaf-sway" cx="342.8" cy="206.8" r="7.1" fill="#26a641" style="animation-delay:0.91s" />
    <circle class="leaf-sway" cx="348.7" cy="217.1" r="7.1" fill="#26a641" style="animation-delay:0.14s" />
    <circle class="leaf-sway" cx="350.7" cy="223.6" r="5.8" fill="#006d32" style="animation-delay:3.48s" />
    <circle class="leaf-sway" cx="353.5" cy="229.3" r="7.1" fill="#26a641" style="animation-delay:2.24s" />
    <circle class="leaf-sway" cx="306.3" cy="215.4" r="7.1" fill="#26a641" style="animation-delay:0.92s" />
    <circle class="leaf-sway" cx="314.5" cy="208.1" r="7.1" fill="#26a641" style="animation-delay:0.92s" />
    <circle class="leaf-sway" cx="326.4" cy="197.0" r="5.8" fill="#006d32" style="animation-delay:0.55s" />
    <circle class="leaf-sway" cx="340.9" cy="194.9" r="7.1" fill="#26a641" style="animation-delay:1.11s" />
    <circle class="leaf-sway" cx="336.3" cy="203.7" r="5.8" fill="#006d32" style="animation-delay:3.21s" />
    <circle class="leaf-sway" cx="349.7" cy="200.7" r="5.8" fill="#006d32" style="animation-delay:2.15s" />
    <circle class="leaf-sway" cx="390.9" cy="255.3" r="8.4" fill="#39d353" style="animation-delay:0.05s" />
    <circle class="leaf-sway" cx="424.9" cy="270.3" r="5.8" fill="#006d32" style="animation-delay:2.41s" />
    <circle class="leaf-sway" cx="428.8" cy="276.6" r="4.5" fill="#0e4429" style="animation-delay:0.70s" />
    <circle class="leaf-sway" cx="436.5" cy="291.9" r="5.8" fill="#006d32" style="animation-delay:0.23s" />
    <circle class="leaf-sway" cx="435.2" cy="300.6" r="7.1" fill="#26a641" style="animation-delay:0.80s" />
    <circle class="leaf-sway" cx="435.4" cy="311.4" r="8.4" fill="#39d353" style="animation-delay:2.58s" />
    <circle class="leaf-sway" cx="50.5" cy="336.2" r="8.4" fill="#39d353" style="animation-delay:0.59s" />
    <circle class="leaf-sway" cx="38.4" cy="327.1" r="7.1" fill="#26a641" style="animation-delay:1.82s" />
    <circle class="leaf-sway" cx="36.1" cy="312.9" r="5.8" fill="#006d32" style="animation-delay:3.56s" />
    <circle class="leaf-sway" cx="49.0" cy="281.4" r="8.4" fill="#39d353" style="animation-delay:0.80s" />
    <circle class="leaf-sway" cx="49.6" cy="278.9" r="7.1" fill="#26a641" style="animation-delay:0.76s" />
    <circle class="leaf-sway" cx="47.7" cy="271.4" r="8.4" fill="#39d353" style="animation-delay:2.44s" />
    <circle class="leaf-sway" cx="46.3" cy="275.0" r="7.1" fill="#26a641" style="animation-delay:2.74s" />
    <circle class="leaf-sway" cx="41.0" cy="259.7" r="7.1" fill="#26a641" style="animation-delay:3.47s" />
    <circle class="leaf-sway" cx="44.3" cy="259.0" r="4.5" fill="#0e4429" style="animation-delay:1.78s" />
    <circle class="leaf-sway" cx="82.6" cy="251.6" r="4.5" fill="#0e4429" style="animation-delay:0.80s" />
    <circle class="leaf-sway" cx="84.7" cy="250.7" r="7.1" fill="#26a641" style="animation-delay:3.85s" />
    <circle class="leaf-sway" cx="80.8" cy="236.7" r="5.8" fill="#006d32" style="animation-delay:3.87s" />
    <circle class="leaf-sway" cx="75.9" cy="234.9" r="5.8" fill="#006d32" style="animation-delay:0.78s" />
    <circle class="leaf-sway" cx="83.6" cy="225.0" r="5.8" fill="#006d32" style="animation-delay:1.16s" />
    <circle class="leaf-sway" cx="83.7" cy="214.8" r="8.4" fill="#39d353" style="animation-delay:2.45s" />
    <circle class="leaf-sway" cx="86.8" cy="208.5" r="8.4" fill="#39d353" style="animation-delay:3.72s" />
    <circle class="leaf-sway" cx="114.4" cy="196.1" r="5.8" fill="#006d32" style="animation-delay:2.77s" />
    <circle class="leaf-sway" cx="113.3" cy="193.5" r="4.5" fill="#0e4429" style="animation-delay:2.59s" />
    <circle class="leaf-sway" cx="120.6" cy="187.6" r="5.8" fill="#006d32" style="animation-delay:0.39s" />
    <circle class="leaf-sway" cx="118.3" cy="186.3" r="8.4" fill="#39d353" style="animation-delay:2.61s" />
    <circle class="leaf-sway" cx="82.9" cy="279.7" r="7.1" fill="#26a641" style="animation-delay:3.12s" />
    <circle class="leaf-sway" cx="66.6" cy="231.7" r="5.8" fill="#006d32" style="animation-delay:3.96s" />
    <circle class="leaf-sway" cx="75.6" cy="216.9" r="7.1" fill="#26a641" style="animation-delay:0.41s" />
    <circle class="leaf-sway" cx="75.7" cy="223.8" r="4.5" fill="#0e4429" style="animation-delay:2.13s" />
    <circle class="leaf-sway" cx="73.6" cy="221.8" r="4.5" fill="#0e4429" style="animation-delay:0.14s" />
    <circle class="leaf-sway" cx="114.0" cy="188.3" r="5.8" fill="#006d32" style="animation-delay:3.46s" />
    <circle class="leaf-sway" cx="115.8" cy="189.5" r="7.1" fill="#26a641" style="animation-delay:2.70s" />
    <circle class="leaf-sway-strong" cx="118.3" cy="173.4" r="7.1" fill="#26a641" style="animation-delay:3.23s" />
    <circle class="leaf-sway-strong" cx="120.0" cy="170.7" r="7.1" fill="#26a641" style="animation-delay:3.30s" />
    <circle class="leaf-sway-strong" cx="127.6" cy="166.0" r="4.5" fill="#0e4429" style="animation-delay:1.03s" />
    <circle class="leaf-sway-strong" cx="129.6" cy="163.6" r="8.4" fill="#39d353" style="animation-delay:0.30s" />
    <circle class="leaf-sway-strong" cx="140.9" cy="169.9" r="5.8" fill="#006d32" style="animation-delay:1.59s" />
    <circle class="leaf-sway-strong" cx="136.9" cy="171.2" r="4.5" fill="#0e4429" style="animation-delay:2.92s" />
    <circle class="leaf-sway-strong" cx="153.4" cy="161.4" r="8.4" fill="#39d353" style="animation-delay:1.28s" />
    <circle class="leaf-sway-strong" cx="172.5" cy="156.1" r="4.5" fill="#0e4429" style="animation-delay:0.72s" />
    <circle class="leaf-sway-strong" cx="176.0" cy="157.2" r="7.1" fill="#26a641" style="animation-delay:0.51s" />
    <circle class="leaf-sway-strong" cx="187.3" cy="164.1" r="4.5" fill="#0e4429" style="animation-delay:0.11s" />
    <circle class="leaf-sway-strong" cx="183.5" cy="162.1" r="7.1" fill="#26a641" style="animation-delay:1.61s" />
    <circle class="leaf-sway-strong" cx="187.4" cy="151.2" r="4.5" fill="#0e4429" style="animation-delay:1.67s" />
    <circle class="leaf-sway-strong" cx="191.2" cy="151.3" r="8.4" fill="#39d353" style="animation-delay:3.79s" />
    <circle class="leaf-sway-strong" cx="217.0" cy="144.2" r="4.5" fill="#0e4429" style="animation-delay:0.33s" />
  </g>
  <text x="250" y="498" text-anchor="middle" font-size="11" fill="#8a5a3d" opacity="0.6">147 contributi · 147 foglie</text>
</svg>